<?xml version="1.0" encoding="UTF-8"?>
<svg width="2378px" height="287px" viewBox="0 0 2378 287" version="1.1" xmlns="http://www.w3.org/2000/svg" xmlns:xlink="http://www.w3.org/1999/xlink">
    <!-- Generator: Sketch 49 (51002) - http://www.bohemiancoding.com/sketch -->
    <title>Dotes 2</title>
    <desc>Created with Sketch.</desc>
    <defs></defs>
    <g id="Dotes-2" stroke="none" stroke-width="1" fill="none" fill-rule="evenodd" opacity="0.900000036" stroke-dasharray="1,30" stroke-linecap="square">
        <g id="Group" transform="translate(1177.000000, 340.500000) rotate(-180.000000) translate(-1177.000000, -340.500000) translate(1060.000000, 83.000000)" stroke="#FFB0B0" stroke-width="9">
            <path d="M1.5,0.5 L1.5,452.748825" id="Line"></path>
            <path d="M34.5,0.5 L34.5,452.748825" id="Line"></path>
            <path d="M67.5,31.5 L67.5,483.748825" id="Line"></path>
            <path d="M100.5,31.5 L100.5,483.748825" id="Line"></path>
            <path d="M133.5,62.5 L133.5,514.748825" id="Line"></path>
            <path d="M166.5,62.5 L166.5,482.748825" id="Line"></path>
            <path d="M199.5,31.5 L199.5,483.748825" id="Line"></path>
            <path d="M232.5,0.5 L232.5,452.748825" id="Line"></path>
        </g>
        <g id="Group" transform="translate(913.000000, 402.500000) rotate(-180.000000) translate(-913.000000, -402.500000) translate(796.000000, 145.000000)" stroke="#FFB0B0" stroke-width="9">
            <path d="M1.5,0.5 L1.5,452.748825" id="Line"></path>
            <path d="M34.5,0.5 L34.5,452.748825" id="Line"></path>
            <path d="M67.5,31.5 L67.5,483.748825" id="Line"></path>
            <path d="M100.5,31.5 L100.5,483.748825" id="Line"></path>
            <path d="M133.5,62.5 L133.5,514.748825" id="Line"></path>
            <path d="M166.5,62.5 L166.5,482.748825" id="Line"></path>
            <path d="M199.5,31.5 L199.5,483.748825" id="Line"></path>
            <path d="M232.5,0.5 L232.5,452.748825" id="Line"></path>
        </g>
        <g id="Group" transform="translate(649.000000, 370.500000) rotate(-180.000000) translate(-649.000000, -370.500000) translate(532.000000, 113.000000)" stroke="#FFB0B0" stroke-width="9">
            <path d="M1.5,0.5 L1.5,452.748825" id="Line"></path>
            <path d="M34.5,0.5 L34.5,452.748825" id="Line"></path>
            <path d="M67.5,31.5 L67.5,483.748825" id="Line"></path>
            <path d="M100.5,31.5 L100.5,483.748825" id="Line"></path>
            <path d="M133.5,62.5 L133.5,514.748825" id="Line"></path>
            <path d="M166.5,62.5 L166.5,482.748825" id="Line"></path>
            <path d="M199.5,31.5 L199.5,483.748825" id="Line"></path>
            <path d="M232.5,0.5 L232.5,452.748825" id="Line"></path>
        </g>
        <g id="Group" transform="translate(385.000000, 246.500000) rotate(-180.000000) translate(-385.000000, -246.500000) translate(268.000000, -11.000000)" stroke="#FFB0B0" stroke-width="9">
            <path d="M1.5,0.5 L1.5,452.748825" id="Line"></path>
            <path d="M34.5,0.5 L34.5,452.748825" id="Line"></path>
            <path d="M67.5,31.5 L67.5,483.748825" id="Line"></path>
            <path d="M100.5,31.5 L100.5,483.748825" id="Line"></path>
            <path d="M133.5,62.5 L133.5,514.748825" id="Line"></path>
            <path d="M166.5,62.5 L166.5,482.748825" id="Line"></path>
            <path d="M199.5,31.5 L199.5,483.748825" id="Line"></path>
            <path d="M232.5,0.5 L232.5,452.748825" id="Line"></path>
        </g>
        <g id="Group" transform="translate(121.000000, 308.500000) rotate(-180.000000) translate(-121.000000, -308.500000) translate(4.000000, 51.000000)" stroke="#FFB0B0" stroke-width="9">
            <path d="M1.5,0.5 L1.5,452.748825" id="Line"></path>
            <path d="M34.5,0.5 L34.5,452.748825" id="Line"></path>
            <path d="M67.5,31.5 L67.5,483.748825" id="Line"></path>
            <path d="M100.5,31.5 L100.5,483.748825" id="Line"></path>
            <path d="M133.5,62.5 L133.5,514.748825" id="Line"></path>
            <path d="M166.5,62.5 L166.5,482.748825" id="Line"></path>
            <path d="M199.5,31.5 L199.5,483.748825" id="Line"></path>
            <path d="M232.5,0.5 L232.5,452.748825" id="Line"></path>
        </g>
        <g id="Group" transform="translate(1969.000000, 371.500000) rotate(-180.000000) translate(-1969.000000, -371.500000) translate(1852.000000, 114.000000)" stroke="#FFB0B0" stroke-width="9">
            <path d="M1.5,0.5 L1.5,452.748825" id="Line"></path>
            <path d="M34.5,0.5 L34.5,452.748825" id="Line"></path>
            <path d="M67.5,31.5 L67.5,483.748825" id="Line"></path>
            <path d="M100.5,31.5 L100.5,483.748825" id="Line"></path>
            <path d="M133.5,62.5 L133.5,514.748825" id="Line"></path>
            <path d="M166.5,62.5 L166.5,482.748825" id="Line"></path>
            <path d="M199.5,31.5 L199.5,483.748825" id="Line"></path>
            <path d="M232.5,0.5 L232.5,452.748825" id="Line"></path>
        </g>
        <g id="Group" transform="translate(1705.000000, 340.500000) rotate(-180.000000) translate(-1705.000000, -340.500000) translate(1588.000000, 83.000000)" stroke="#FFB0B0" stroke-width="9">
            <path d="M1.5,0.5 L1.5,452.748825" id="Line"></path>
            <path d="M34.5,0.5 L34.5,452.748825" id="Line"></path>
            <path d="M67.5,31.5 L67.5,483.748825" id="Line"></path>
            <path d="M100.5,31.5 L100.5,483.748825" id="Line"></path>
            <path d="M133.5,62.5 L133.5,514.748825" id="Line"></path>
            <path d="M166.5,62.5 L166.5,482.748825" id="Line"></path>
            <path d="M199.5,31.5 L199.5,483.748825" id="Line"></path>
            <path d="M232.5,0.5 L232.5,452.748825" id="Line"></path>
        </g>
        <g id="Group" transform="translate(1441.000000, 402.500000) rotate(-180.000000) translate(-1441.000000, -402.500000) translate(1324.000000, 145.000000)" stroke="#FFB0B0" stroke-width="9">
            <path d="M1.5,0.5 L1.5,452.748825" id="Line"></path>
            <path d="M34.5,0.5 L34.5,452.748825" id="Line"></path>
            <path d="M67.5,31.5 L67.5,483.748825" id="Line"></path>
            <path d="M100.5,31.5 L100.5,483.748825" id="Line"></path>
            <path d="M133.5,62.5 L133.5,514.748825" id="Line"></path>
            <path d="M166.5,62.5 L166.5,482.748825" id="Line"></path>
            <path d="M199.5,31.5 L199.5,483.748825" id="Line"></path>
            <path d="M232.5,0.5 L232.5,452.748825" id="Line"></path>
        </g>
        <g id="Group" transform="translate(2233.000000, 277.500000) rotate(-180.000000) translate(-2233.000000, -277.500000) translate(2116.000000, 20.000000)" stroke="#FFB0B0" stroke-width="9">
            <path d="M1.5,0.5 L1.5,452.748825" id="Line"></path>
            <path d="M34.5,0.5 L34.5,452.748825" id="Line"></path>
            <path d="M67.5,31.5 L67.5,483.748825" id="Line"></path>
            <path d="M100.5,31.5 L100.5,483.748825" id="Line"></path>
            <path d="M133.5,62.5 L133.5,514.748825" id="Line"></path>
            <path d="M166.5,62.5 L166.5,482.748825" id="Line"></path>
            <path d="M199.5,31.5 L199.5,483.748825" id="Line"></path>
            <path d="M232.5,0.5 L232.5,452.748825" id="Line"></path>
        </g>
    </g>
</svg>