<?xml version="1.0" encoding="UTF-8"?>
<svg width="163px" height="432px" viewBox="0 0 163 432" version="1.1" xmlns="http://www.w3.org/2000/svg" xmlns:xlink="http://www.w3.org/1999/xlink">
    <!-- Generator: Sketch 48.2 (47327) - http://www.bohemiancoding.com/sketch -->
    <title>Dotes</title>
    <desc>Created with Sketch.</desc>
    <defs></defs>
    <g id="Welcome" stroke="none" stroke-width="1" fill="none" fill-rule="evenodd" opacity="0.200000003" stroke-dasharray="1,30" stroke-linecap="square">
        <g id="Dotes" stroke="#FF7373" stroke-width="9">
            <g id="Group" transform="translate(-51.000000, 51.500000) rotate(-90.000000) translate(51.000000, -51.500000) translate(-163.000000, -175.000000)">
                <path d="M1.43589744,0.5 L1.43589744,452.748825" id="Line"></path>
                <path d="M33.025641,0.5 L33.025641,452.748825" id="Line"></path>
                <path d="M64.6153846,0.5 L64.6153846,452.748825" id="Line"></path>
                <path d="M96.2051282,0.5 L96.2051282,452.748825" id="Line"></path>
                <path d="M127.794872,0.5 L127.794872,452.748825" id="Line"></path>
                <path d="M159.863248,0 L159.863248,452.25" id="Line"></path>
            </g>
            <g id="Group" transform="translate(-51.000000, 316.500000) rotate(-90.000000) translate(51.000000, -316.500000) translate(-163.000000, 90.000000)">
                <path d="M1.43589744,0.5 L1.43589744,452.748825" id="Line"></path>
                <path d="M33.025641,0.5 L33.025641,452.748825" id="Line"></path>
                <path d="M64.6153846,0.5 L64.6153846,452.748825" id="Line"></path>
                <path d="M96.2051282,0.5 L96.2051282,452.748825" id="Line"></path>
                <path d="M127.794872,0.5 L127.794872,452.748825" id="Line"></path>
                <path d="M159.863248,0 L159.863248,452.25" id="Line"></path>
                <path d="M190.974359,0.5 L190.974359,452.748825" id="Line"></path>
                <path d="M222.564103,0.5 L222.564103,452.748825" id="Line"></path>
            </g>
        </g>
    </g>
</svg>