<?xml version="1.0" encoding="UTF-8"?>
<svg width="383px" height="167px" viewBox="0 0 383 167" version="1.1" xmlns="http://www.w3.org/2000/svg" xmlns:xlink="http://www.w3.org/1999/xlink">
    <!-- Generator: Sketch 49 (51002) - http://www.bohemiancoding.com/sketch -->
    <title>Dotes mobile 2</title>
    <desc>Created with Sketch.</desc>
    <defs></defs>
    <g id="Dotes-mobile-2" stroke="none" stroke-width="1" fill="none" fill-rule="evenodd" opacity="0.900000036" stroke-dasharray="1,30" stroke-linecap="square">
        <g id="Group" transform="translate(384.000000, 246.500000) rotate(-180.000000) translate(-384.000000, -246.500000) translate(267.000000, -11.000000)" stroke="#FFB0B0" stroke-width="9">
            <path d="M133.5,62.5 L133.5,514.748825" id="Line"></path>
            <path d="M166.5,62.5 L166.5,482.748825" id="Line"></path>
            <path d="M199.5,31.5 L199.5,483.748825" id="Line"></path>
            <path d="M232.5,0.5 L232.5,452.748825" id="Line"></path>
        </g>
        <g id="Group" transform="translate(120.000000, 308.500000) rotate(-180.000000) translate(-120.000000, -308.500000) translate(3.000000, 51.000000)" stroke="#FFB0B0" stroke-width="9">
            <path d="M1.5,0.5 L1.5,452.748825" id="Line"></path>
            <path d="M34.5,0.5 L34.5,452.748825" id="Line"></path>
            <path d="M67.5,31.5 L67.5,483.748825" id="Line"></path>
            <path d="M100.5,31.5 L100.5,483.748825" id="Line"></path>
            <path d="M133.5,62.5 L133.5,514.748825" id="Line"></path>
            <path d="M166.5,62.5 L166.5,482.748825" id="Line"></path>
            <path d="M199.5,31.5 L199.5,483.748825" id="Line"></path>
            <path d="M232.5,0.5 L232.5,452.748825" id="Line"></path>
        </g>
    </g>
</svg>