<?xml version="1.0" encoding="UTF-8"?>
<svg width="580px" height="580px" viewBox="0 0 580 580" version="1.1" xmlns="http://www.w3.org/2000/svg" xmlns:xlink="http://www.w3.org/1999/xlink">
    <!-- Generator: Sketch 49 (51002) - http://www.bohemiancoding.com/sketch -->
    <title>Tablet Portrait</title>
    <desc>Created with Sketch.</desc>
    <defs></defs>
    <g id="Tablet-Portrait" stroke="none" stroke-width="1" fill="none" fill-rule="evenodd">
        <g id="vk" transform="translate(107.000000, 192.000000)" fill="#FF4F4F" fill-rule="nonzero">
            <path d="M327.759747,153.374796 C320.29879,144.434509 311.869792,136.452085 303.717472,128.732237 C300.852872,126.018735 297.889123,123.212797 295.035242,120.426953 C295.034572,120.426283 295.033902,120.425613 295.033232,120.424943 C291.194561,116.681236 289.315421,114.024 289.119132,112.061384 C288.926194,110.132259 290.244607,107.270054 293.277358,103.039376 C297.812082,96.6759439 302.645592,90.3017942 307.32167,84.1379726 C311.477885,78.6587224 315.774786,72.9925883 319.893486,67.294302 L320.817982,66.0149172 C328.853735,54.8943168 337.162147,43.3952596 341.61447,29.3823117 C342.885988,25.3646414 344.20641,19.4191861 341.021586,14.1998319 C337.835422,8.97913799 331.928692,7.43181917 327.765776,6.72313376 C325.732554,6.37481956 323.803169,6.34601666 322.00777,6.34601666 L269.883571,6.29979804 C260.871737,6.14975501 254.619995,10.4206229 251.212756,18.99719 C248.48616,25.8469226 245.26583,33.785137 241.535016,41.3154219 C234.396964,55.8528507 225.326847,72.5967158 212.180235,86.5473691 L211.59606,87.1689759 C210.70104,88.1241606 209.238593,89.6862158 208.487607,90.0445775 C207.063346,89.149678 205.42002,84.0314688 205.495051,81.3501194 C205.497061,81.2838057 205.497731,81.2181619 205.497731,81.1525181 L205.451506,20.9323433 C205.451506,20.6262287 205.430069,20.3201141 205.389203,20.0166789 C204.220184,11.4253754 201.941098,2.81263711 188.341617,0.129278152 C187.905496,0.0428694391 187.462005,0 187.018515,0 L132.79812,0 C122.597169,0 117.201592,4.67075936 112.875885,9.73471185 C111.623795,11.2110282 108.296946,15.1309025 109.991857,19.922902 C111.706865,24.7718375 116.817055,25.739749 118.494547,26.0572508 C124.403287,27.1785546 127.458816,30.517682 128.404751,36.9012094 C130.274512,49.3045438 130.503626,62.5733051 129.12693,78.6379575 C128.743063,82.951025 128.028923,86.2291974 126.876651,88.9554258 C126.557767,89.7103299 126.277738,90.1778747 126.08212,90.4531769 C125.769935,90.3272479 125.284239,90.0861073 124.611634,89.6259307 C120.459438,86.7851605 117.330217,82.3689384 114.304165,78.0994102 C102.217375,61.0367036 92.0505905,42.1915661 83.2189668,20.478865 C79.581943,11.5814469 72.7446865,6.61194115 63.9793854,6.48333283 C47.2794904,6.20535131 31.8343653,6.21204966 16.7771268,6.50476755 C9.67524996,6.62801719 4.69502614,8.86325654 1.97245019,13.1495306 C-0.753475386,17.4438427 -0.653656534,22.9190739 2.26989697,29.4258509 C23.168883,75.8923039 42.1451838,109.694857 63.7971658,139.02961 C79.0426532,159.681962 94.3892993,174.017771 112.093412,184.145676 C130.694555,194.786004 151.672592,200.00067 176.009634,200 C178.777095,200 181.592791,199.932347 184.446002,199.79637 C199.461035,199.112469 205.570083,193.14089 206.236659,178.519062 C206.610477,170.791176 207.470661,164.530898 210.455177,159.091838 C211.289904,157.569303 212.231819,156.548474 212.974096,156.36159 C213.763268,156.164659 215.162742,156.64761 216.718978,157.658391 C219.56415,159.505796 222.014067,162.010979 224.028532,164.210047 C226.070464,166.445286 228.133833,168.754207 230.13088,170.986767 C234.380216,175.740586 238.774255,180.656505 243.377981,185.34535 C253.790628,195.958216 265.794347,200.825237 279.070255,199.805748 L326.772277,199.827852 C326.773617,199.827852 326.774287,199.827852 326.774957,199.827852 C326.92636,199.827852 327.077763,199.823164 327.229166,199.813116 C332.731262,199.446716 337.488401,196.400977 340.281989,191.454915 C343.645683,185.498742 343.594769,177.954391 340.143314,171.266089 C336.541796,164.312532 331.869068,158.327556 327.759747,153.374796 Z M328.383447,184.73714 C327.725581,185.901983 326.914302,186.114321 326.495598,186.165228 L278.803624,186.143124 C278.802285,186.143124 278.800945,186.143124 278.798935,186.143124 C278.610686,186.143124 278.422437,186.150492 278.235528,186.166568 C268.839827,186.948935 260.853649,183.646649 253.130752,175.776088 C248.750111,171.313647 244.463929,166.519638 240.319102,161.88304 C238.299278,159.623687 236.211121,157.286632 234.112915,154.990438 C231.510926,152.148998 228.294615,148.883553 224.161847,146.200194 C217.974418,142.184533 212.84681,142.305773 209.635859,143.114934 C206.458404,143.915386 201.941768,146.199524 198.474905,152.525445 C193.983727,160.710159 192.992908,169.539924 192.589613,177.881379 C192.356479,182.982842 191.493615,184.33055 191.133195,184.672836 C190.660898,185.121625 189.082554,185.910691 183.816272,186.151162 C158.509179,187.340789 137.27121,182.809355 118.879754,172.288257 C102.880601,163.135632 88.8711256,149.98878 74.7926478,130.917908 C53.7402489,102.397004 35.2168175,69.368781 14.733855,23.8267003 C13.9915779,22.1768967 13.7624635,21.1473603 13.6961409,20.5960862 C14.2186826,20.4246084 15.2396485,20.198874 17.0296886,20.1660521 C31.9341841,19.8773532 47.2178573,19.8693152 63.7670191,20.1452872 C66.0327061,20.178779 68.612588,20.8586615 70.5660898,25.6379341 C79.7936393,48.3245752 90.4528189,68.0679615 103.1546,85.9981044 C106.527004,90.7572819 110.724755,96.6813026 116.894096,100.901933 C122.544915,104.7709 127.130553,104.586025 129.983094,103.750071 C132.836976,102.913447 136.797573,100.58912 139.465215,94.2739156 C141.186253,90.2033284 142.226647,85.6196476 142.741819,79.8282543 C144.213645,62.6449774 143.952374,48.3587368 141.921161,34.8836664 C140.489531,25.2293348 135.503948,18.2550129 127.650415,14.6935003 C129.045199,13.9673991 130.616844,13.6646337 132.79946,13.6646337 L186.311074,13.6646337 C189.321718,14.3398274 189.917951,15.132912 190.122278,15.4041952 C190.989161,16.5569812 191.484906,19.2838794 191.787712,21.4146245 L191.833267,81.0795061 C191.712681,86.799227 194.49287,99.484562 203.958913,102.963015 C204.036624,102.991818 204.115005,103.018611 204.193387,103.044065 C212.811304,105.860051 218.511698,99.7772799 221.571916,96.509155 L222.117235,95.9290779 C236.517947,80.6467927 246.215114,62.7903316 253.791298,47.3606827 C257.739837,39.3929955 261.084103,31.1513459 263.911858,24.047076 C265.326739,20.4842237 266.614336,19.8974483 269.686613,19.9624223 C269.728818,19.9637619 269.770353,19.9637619 269.813228,19.9637619 L322.00375,20.0099805 C323.217654,20.0099805 324.484483,20.0240471 325.467263,20.1921757 C327.954025,20.6155114 328.978341,21.1312843 329.315983,21.3449617 C329.350819,21.7408341 329.34278,22.8795536 328.591124,25.2561282 C324.805377,37.1718227 317.489124,47.2957087 309.744119,58.0144082 L308.818952,59.2958025 C304.794712,64.8634709 300.545376,70.4653009 296.436725,75.8835961 C291.700354,82.127128 286.804541,88.5823277 282.162629,95.0971428 C272.238358,108.941962 273.1106,118.129419 285.495507,130.207883 C288.42241,133.06473 291.422335,135.90617 294.324451,138.653833 C302.551802,146.446023 310.323604,153.8055 317.25934,162.115473 C320.890334,166.492175 325.006355,171.74837 328.00628,177.541103 C329.571225,180.573446 329.187358,183.313071 328.383447,184.73714 Z" id="Shape"></path>
        </g>
        <circle id="Oval" stroke="#FF4F4F" stroke-width="14" cx="290" cy="290" r="270"></circle>
    </g>
</svg>